<svg width="107" height="21" viewBox="0 0 107 21" fill="none" xmlns="http://www.w3.org/2000/svg">
<path d="M16.7649 15.8618C15.4896 16.4894 14.2143 16.7177 12.8456 16.7177C8.67757 16.7177 5.78481 14.0646 5.78481 10.3276C5.78481 6.53345 8.67757 3.93748 12.9078 3.93748C15.1163 3.93748 16.9515 4.65066 18.5378 6.19113L21.7728 3.45252C19.6576 1.19887 16.4849 0.000732422 12.659 0.000732422C5.7226 0.000732422 0.683594 4.30833 0.683594 10.3276C0.683594 16.3468 5.7226 20.6544 12.5657 20.6544C15.6762 20.6544 18.9733 19.7701 21.3684 18.1155V10.0138H16.7649V15.8618Z" fill="#2E2E2E"/>
<path d="M30.3417 6.98989V4.96446H25.7071V20.3121H30.5594V13.0662C30.5594 10.1279 32.3324 8.7871 35.0074 8.7871C35.3807 8.7871 35.6918 8.81563 36.0961 8.84415V4.73624C33.5144 4.73624 31.5237 5.50647 30.3417 6.98989Z" fill="#2E2E2E"/>
<path d="M46.7923 20.5403C52.1113 20.5403 55.9683 17.2597 55.9683 12.6383C55.9683 8.01687 52.1113 4.73624 46.7923 4.73624C41.4734 4.73624 37.5853 8.01687 37.5853 12.6383C37.5853 17.2597 41.4734 20.5403 46.7923 20.5403ZM46.7923 16.8888C44.3662 16.8888 42.4999 15.2913 42.4999 12.6383C42.4999 9.98524 44.3662 8.38772 46.7923 8.38772C49.2185 8.38772 51.0537 9.98524 51.0537 12.6383C51.0537 15.2913 49.2185 16.8888 46.7923 16.8888Z" fill="#2E2E2E"/>
<path d="M70.7004 4.96446L65.9102 15.4054L61.2756 4.96446H56.2677L63.2974 20.3121H68.3053L75.3661 4.96446H70.7004Z" fill="#2E2E2E"/>
<path d="M93.2828 12.6953C93.2828 7.76012 89.488 4.73624 84.5735 4.73624C79.4722 4.73624 75.6463 8.04539 75.6463 12.6383C75.6463 17.2026 79.41 20.5403 85.1956 20.5403C88.2127 20.5403 90.5456 19.6845 92.1009 18.0584L89.5191 15.491C88.3683 16.4894 87.093 16.9744 85.32 16.9744C82.7694 16.9744 80.9964 15.8048 80.5298 13.8935H93.1895C93.2206 13.5226 93.2828 13.0376 93.2828 12.6953ZM84.6046 8.10245C86.7819 8.10245 88.3683 9.35764 88.7104 11.2975H80.4676C80.8098 9.32911 82.3961 8.10245 84.6046 8.10245Z" fill="#2E2E2E"/>
<path d="M101.148 6.98989V4.96446H96.5134V20.3121H101.366V13.0662C101.366 10.1279 103.139 8.7871 105.814 8.7871C106.187 8.7871 106.498 8.81563 106.902 8.84415V4.73624C104.321 4.73624 102.33 5.50647 101.148 6.98989Z" fill="#2E2E2E"/>
</svg>
